<?xml version="1.0" ?><svg enable-background="new 0 0 64 64" height="64px" id="Layer_1" version="1.1" viewBox="0 0 64 64" width="64px" xml:space="preserve" xmlns="http://www.w3.org/2000/svg" xmlns:xlink="http://www.w3.org/1999/xlink"><circle cx="32" cy="32" fill="#76C2AF" r="32"/><path d="M50.486,25.37L31.017,43.145c0,0-4.347,3.837-10.367,3.023  c-2.688-0.364-6.145-1.257-10.523-3.08L12,40.634h10.245c0,0,17.574-14.635,19.838-16.899c1.926-1.926,6.75-3.267,9.917-2.529  C53.063,21.454,53.486,22.37,50.486,25.37z" fill="#231F20" opacity="0.2"/><polygon fill="#231F20" opacity="0.2" points="33.167,35.301 15.75,32.634 18.344,29.072 40.5,29.072 "/><path d="M50.486,23.37L31.017,41.145c0,0-4.347,3.837-10.367,3.023c-2.688-0.364-6.145-1.257-10.523-3.08L12,38.634  h10.245c0,0,17.574-14.635,19.838-16.899c1.926-1.926,6.75-3.267,9.917-2.529C53.063,19.454,53.486,20.37,50.486,23.37z" fill="#FFFFFF"/><polygon fill="#FFFFFF" points="33.167,33.301 15.75,30.634 18,26.634 41,26.634 "/></svg>